<svg xmlns="http://www.w3.org/2000/svg" width="46.88" height="56.26" viewBox="0 0 46.88 56.26"><title>ico_desc_map</title><g id="Слой_2" data-name="Слой 2"><g id="index-page"><g id="advantages"><path d="M21.56,51.57a.94.94,0,0,1,.94-.94h1.88a.94.94,0,1,1,0,1.88H22.5A.94.94,0,0,1,21.56,51.57ZM46.88,10.31V43.13a.94.94,0,0,1-1.36.84l-5.21-2.61V53.44a2.81,2.81,0,0,1-2.81,2.81H9.38a2.81,2.81,0,0,1-2.81-2.81V41.36L1.36,44A.94.94,0,0,1,0,43.13V10.31a.94.94,0,0,1,.52-.84l6-3V2.81A2.81,2.81,0,0,1,9.38,0H37.5a2.81,2.81,0,0,1,2.81,2.81V6.45l6,3A.94.94,0,0,1,46.88,10.31ZM8.44,5.52l3.33-1.67h0a.88.88,0,0,1,.79,0h0L23.44,9.27,34.27,3.85h0a.87.87,0,0,1,.78,0h0l3.33,1.67V2.81a.94.94,0,0,0-.94-.94H9.38a.94.94,0,0,0-.94.94ZM30,26.72A3.28,3.28,0,0,1,26.72,30h-7.5a1.41,1.41,0,1,0,0,2.81H35.61c-1.46-2-3.74-5.46-3.74-7.5a5.61,5.61,0,0,1,1.88-4.18V6.21l-9.38,4.69v9.73a.94.94,0,0,1-1.88,0V10.89L13.13,6.21v5.55A5.62,5.62,0,0,1,15,15.94c0,2-2.28,5.49-3.74,7.5H26.72A3.28,3.28,0,0,1,30,26.72ZM13.13,15.94a3.75,3.75,0,0,0-7.5,0c0,1.43,2.07,4.66,3.75,6.91C11.06,20.6,13.13,17.36,13.13,15.94ZM37.5,32.22c1.68-2.24,3.75-5.48,3.75-6.91a3.75,3.75,0,0,0-7.5,0C33.75,26.74,35.82,30,37.5,32.22Zm.94,15.6h-30v5.63a.94.94,0,0,0,.94.94H37.5a.94.94,0,0,0,.94-.94Zm0-7.39-3.75-1.87L23.86,44A.94.94,0,0,1,23,44L12.19,38.55,8.44,40.43v5.52h30ZM45,10.89,35.63,6.21V20a5.61,5.61,0,0,1,7.5,5.3c0,2.84-4.39,8.4-4.89,9l0,0a1.07,1.07,0,0,1-.69.32H19.22a3.28,3.28,0,1,1,0-6.56h7.5a1.41,1.41,0,0,0,0-2.81H9.38a.7.7,0,0,1-.48-.15A.89.89,0,0,1,8.68,25l0,0c-.5-.62-4.89-6.19-4.89-9a5.61,5.61,0,0,1,7.5-5.3V6.21L1.88,10.89V41.61l9.38-4.69v-8.8a.94.94,0,0,1,1.88,0v8.8l9.38,4.69V37.5a.94.94,0,0,1,1.88,0v4.11l9.89-5a.94.94,0,0,1,.84,0l9.89,5ZM9.89,15.15a.94.94,0,0,0-1.18.12,1,1,0,0,0-.2.31,1,1,0,0,0-.08.36.94.94,0,1,0,1.46-.79ZM38.37,25.66a.94.94,0,0,0-1.53-1,1,1,0,0,0-.2.31,1,1,0,0,0-.08.36.94.94,0,0,0,1.81.35Z" style="fill:#191312"/></g></g></g></svg>