<svg xmlns="http://www.w3.org/2000/svg" width="55.81" height="55.81" viewBox="0 0 55.81 55.81"><title>ico_desc_msk</title><g id="Слой_2" data-name="Слой 2"><g id="index-page"><g id="advantages"><path d="M32.56,22.33a.93.93,0,1,0,0,1.86v1.55a25.3,25.3,0,0,1-2.13,2.58c-1.35,1.48-2.52,2.75-2.52,4.25a2.79,2.79,0,0,0,1.86,2.62v5.75H23.26a.93.93,0,1,0,0,1.86H30.7a.93.93,0,0,0,.93-.93V35.35h3.72v.93a.93.93,0,1,0,1.86,0v-1.1a2.79,2.79,0,0,0,1.86-2.62c0-1.5-1.17-2.77-2.52-4.25a25.3,25.3,0,0,1-2.13-2.58V24.19a.93.93,0,0,0,0-1.86.93.93,0,0,0-1.86,0Zm2.62,7.24c1,1.14,2,2.22,2,3a.93.93,0,0,1-.93.93H30.7a.93.93,0,0,1-.93-.93c0-.77,1-1.85,2-3,.54-.59,1.13-1.23,1.69-1.95C34.05,28.33,34.64,29,35.18,29.57ZM54.88,54H50.23V47.44a.93.93,0,0,0-.93-.93h-.93V34.42a.93.93,0,0,0-.93-.93h-.93V29.6A2.79,2.79,0,0,0,48.37,27c0-1.5-1.17-2.77-2.52-4.25a25.31,25.31,0,0,1-2.13-2.58V18.6a.93.93,0,0,0,0-1.86.93.93,0,0,0-1.86,0,.93.93,0,0,0,0,1.86v1.55a25.31,25.31,0,0,1-2.13,2.58c-1.35,1.47-2.52,2.75-2.52,4.25A2.79,2.79,0,0,0,40,29.77h4.65v3.72H40.93a.93.93,0,0,0,0,1.86h5.58V47.44a.93.93,0,0,0,.93.93h.93V54H44.65V45.58a.93.93,0,0,0-1.86,0v.93H40.64l-2.56-6.84a.93.93,0,0,0-1.74,0l-2.56,6.84H31.63v-.93a.93.93,0,0,0-1.86,0V54H5.58V48.37h.93a.93.93,0,0,0,.93-.93V45.58a.93.93,0,0,0-.93-.93.93.93,0,0,1-.93-.93c0-.77,1-1.85,2-3,.3-.33.62-.67.93-1a.93.93,0,1,0-1.4-1.22c-.3.35-.61.68-.9,1C4.89,41,3.72,42.23,3.72,43.72a2.8,2.8,0,0,0,1.86,2.63v.16H4.65a.93.93,0,0,0-.93.93V54H.93a.93.93,0,0,0,0,1.86h54a.93.93,0,0,0,0-1.86Zm-9.3-26H40a.93.93,0,0,1-.93-.93c0-.77,1-1.85,2-3,.54-.59,1.13-1.23,1.69-1.95.56.71,1.15,1.36,1.69,1.95,1,1.14,2,2.22,2,3A.93.93,0,0,1,45.58,27.91ZM37.21,42.65l1.45,3.86h-2.9ZM42.79,54H40.93V51.16a.93.93,0,1,0-1.86,0V54H35.35V51.16a.93.93,0,1,0-1.86,0V54H31.63V48.37H42.79ZM25.12,18.6a.93.93,0,1,0,0,1.86h7.44a.93.93,0,1,0,0-1.86h-.11l-.72-5.78a2.79,2.79,0,0,0,1.76-2.59,4.5,4.5,0,0,0-1.1-2.57A14.05,14.05,0,0,1,29.76.8a.93.93,0,0,0-1.84,0,14.05,14.05,0,0,1-2.63,6.86,4.5,4.5,0,0,0-1.1,2.57,2.79,2.79,0,0,0,1.76,2.59l-.72,5.78Zm2,0L27.8,13h2.08l.7,5.58Zm-.29-9.89a15.15,15.15,0,0,0,2-3.8,15.21,15.21,0,0,0,2,3.8c.5.73.77,1.13.77,1.51a.93.93,0,0,1-.93.93H27a.93.93,0,0,1-.93-.93C26,9.84,26.31,9.44,26.81,8.72Zm-21.23,21c0-1.5,1.17-2.77,2.52-4.24a25.3,25.3,0,0,0,2.13-2.58V21.4a.93.93,0,1,1,0-1.86.93.93,0,0,1,1.86,0,.93.93,0,1,1,0,1.86V23c.19.27.42.56.6.79a.93.93,0,1,1-1.46,1.15l-.06-.07c-.56.71-1.16,1.36-1.7,2-1,1.14-2,2.22-2,3a.93.93,0,0,0,.93.93H9.3a.93.93,0,1,1,0,1.86v1.86a.93.93,0,1,1-1.86,0v-2A2.78,2.78,0,0,1,5.58,29.77ZM14,27.91v1.55A25.17,25.17,0,0,1,11.82,32c-1.35,1.47-2.52,2.75-2.52,4.24a2.78,2.78,0,0,0,1.86,2.62v8.54a.93.93,0,1,0,1.86,0V39.07h3.72v8.37a.93.93,0,0,0,.93.93h5.58a.93.93,0,0,0,0-1.86H18.6V38.9a2.79,2.79,0,0,0,1.86-2.62c0-1.5-1.17-2.77-2.52-4.24a25.31,25.31,0,0,1-2.13-2.58V27.91a.93.93,0,0,0,0-1.86A.93.93,0,0,0,14,26a.93.93,0,0,0,0,1.86Zm.93,3.44c.56.71,1.15,1.36,1.69,1.95,1,1.14,2,2.22,2,3a.93.93,0,0,1-.93.93H12.09a.93.93,0,0,1-.93-.93c0-.77,1-1.85,2-3C13.73,32.7,14.32,32.05,14.88,31.34Zm1.55-6.9a.93.93,0,0,1-.17-1.3c.41-.54.86-1,1.34-1.55a21.85,21.85,0,0,0,1.94-2.35V17.67a.93.93,0,1,1,0-1.86.93.93,0,1,1,1.86,0,.93.93,0,0,1,0,1.86v1.55a25.3,25.3,0,0,0,2.13,2.58C24.88,23.27,26,24.55,26,26a2.79,2.79,0,0,1-1.86,2.62v9.47a.93.93,0,0,1-1.86,0v-9.3H19.53a.93.93,0,1,1,0-1.86h3.72a.93.93,0,0,0,.93-.93c0-.77-1-1.85-2-3-.54-.59-1.13-1.23-1.69-1.94-.51.66-1,1.21-1.5,1.73s-.87,1-1.23,1.43A.93.93,0,0,1,16.43,24.44Z"/></g></g></g></svg>