<svg xmlns="http://www.w3.org/2000/svg" width="57.22" height="53.63" viewBox="0 0 57.22 53.63"><title>ico_desc_portfel</title><g id="Слой_2" data-name="Слой 2"><g id="index-page"><g id="advantages"><path d="M43.08,48.14a1,1,0,1,1-1-1A1,1,0,0,1,43.08,48.14Zm9,2.25a3.25,3.25,0,0,1-3.24,3.24H8.41a3.25,3.25,0,0,1-3.24-3.24V22.2H3.24A3.25,3.25,0,0,1,0,19V16.71a3.25,3.25,0,0,1,3.24-3.24H7.41V10a10,10,0,0,1,10-10H39.83a10,10,0,0,1,10,10v3.49H54a3.25,3.25,0,0,1,3.24,3.24V19A3.25,3.25,0,0,1,54,22.2H52.06ZM38.47,4.49h1.36A5.49,5.49,0,0,1,45.32,10v3.49h2.49V10a8,8,0,0,0-8-8H38.47Zm1.36,2H17.39A3.5,3.5,0,0,0,13.89,10v3.49H43.33V10A3.5,3.5,0,0,0,39.83,6.48Zm-19.32-2h16V2h-16Zm-11.11,9H11.9V10a5.49,5.49,0,0,1,5.49-5.49h1.14V2H17.39a8,8,0,0,0-8,8ZM50.06,22.2H38.59v1.25a3.25,3.25,0,0,1-3.24,3.24H21.88a3.25,3.25,0,0,1-3.24-3.24V22.2H7.16V47.14H37.59a1,1,0,1,1,0,2H7.16v1.25a1.25,1.25,0,0,0,1.25,1.25H48.81a1.25,1.25,0,0,0,1.25-1.25V49.14H46.57a1,1,0,1,1,0-2h3.49Zm-28.19,2.5H35.34a1.25,1.25,0,0,0,1.25-1.25V22.2h-16v1.25A1.25,1.25,0,0,0,21.88,24.69ZM54,20.2A1.25,1.25,0,0,0,55.22,19V16.71A1.25,1.25,0,0,0,54,15.46H3.24A1.25,1.25,0,0,0,2,16.71V19A1.25,1.25,0,0,0,3.24,20.2ZM35.4,35.92H31.07l1.48-1.48A1,1,0,0,0,31.15,33l-1.54,1.54V30.18a1,1,0,1,0-2,0v4.27L26.13,33a1,1,0,1,0-1.41,1.41l1.54,1.54H21.93a1,1,0,1,0,0,2h4.33L24.8,39.37a1,1,0,0,0,.71,1.7h0a1,1,0,0,0,.7-.29l1.4-1.4v4.27a1,1,0,1,0,2,0V39.27l1.46,1.46a1,1,0,0,0,1.41,0,1,1,0,0,0,0-1.41l-1.4-1.4H35.4a1,1,0,0,0,0-2Z" style="fill:#191312"/></g></g></g></svg>