<svg xmlns="http://www.w3.org/2000/svg" width="58.62" height="55.2" viewBox="0 0 58.62 55.2"><title>ico_catreview_caviar</title><g id="Слой_2" data-name="Слой 2"><g id="index-page"><g id="catalog"><path d="M23.85,47.06a1.59,1.59,0,1,1-1.59-1.59A1.6,1.6,0,0,1,23.85,47.06ZM15.2,19.61A1.59,1.59,0,1,0,13.6,18,1.6,1.6,0,0,0,15.2,19.61Zm28.22,0A1.59,1.59,0,1,0,41.82,18,1.6,1.6,0,0,0,43.42,19.61Zm15.2,8a8.19,8.19,0,0,1-6.92,8l-.24,0,0,.24A8,8,0,0,1,51.56,37a8.17,8.17,0,0,1-7,8.06l-.27,0,.06.26a8.14,8.14,0,0,1-14.81,6.1l-.21-.33-.21.33a8.14,8.14,0,0,1-14.81-6.11l.06-.26-.27,0a8.07,8.07,0,0,1-7-9.13l0-.24-.24,0A8.13,8.13,0,0,1,7,19.55l.25,0,0-.25A8.07,8.07,0,0,1,14,10l.26,0,0-.26A8.14,8.14,0,0,1,29.1,3.75l.21.33.21-.33A8.13,8.13,0,0,1,44.36,9.67l0,.26.26,0a8.07,8.07,0,0,1,6.89,9.31l0,.25.25,0A8.18,8.18,0,0,1,58.62,27.6Zm-15-15.54a5.16,5.16,0,0,0-1.74.21,5.93,5.93,0,0,0-4.21,7.14l0,.16.16,0a8.18,8.18,0,0,1,5.39,3.61l.21.33.21-.33A8.18,8.18,0,0,1,49,19.59l.16,0,0-.16a5.94,5.94,0,0,0-5.56-7.35ZM42.16,26.21a5.94,5.94,0,0,0-5.4-4.55h-.07a4.65,4.65,0,0,0-.65,0H36a5.8,5.8,0,0,0-.92.13,6,6,0,0,0,.82,11.76l.49,0,.49,0a5.94,5.94,0,0,0,5.31-7.33ZM30.4,8.14a6,6,0,0,0,.25,1.7l0,.15.15,0a8.19,8.19,0,0,1,5.31,3.6l.21.33.21-.33A8.19,8.19,0,0,1,41.89,10L42,10l0-.15A6,6,0,1,0,30.4,8.14Zm-1.32,3.92a5.94,5.94,0,0,0-5.56,7.35l0,.16.16,0A8.18,8.18,0,0,1,29.1,23.2l.21.33.21-.33a8.18,8.18,0,0,1,5.39-3.61l.16,0,0-.16a6,6,0,0,0-4.21-7.14,5.9,5.9,0,0,0-1.35-.21h-.46Zm-1,14.15h0a6,6,0,0,0-4.48-4.42,5.91,5.91,0,0,0-.92-.13h-.07a4.53,4.53,0,0,0-.65,0h-.07a5.75,5.75,0,0,0-.92.13,6,6,0,0,0-4.54,7,5.93,5.93,0,0,0,5.36,4.76l.49,0,.49,0a5.91,5.91,0,0,0,4.81-3.21,5.91,5.91,0,0,0,.67-2.74A6,6,0,0,0,28.05,26.21ZM16.29,8.14a6,6,0,0,0,.25,1.7l0,.15.15,0A8.19,8.19,0,0,1,22,13.62l.21.33.21-.33A8.19,8.19,0,0,1,27.78,10l.15,0,0-.15a6,6,0,1,0-11.68-1.7ZM9.23,18a5.89,5.89,0,0,0,.17,1.39l0,.16.16,0A8.18,8.18,0,0,1,15,23.2l.21.33.21-.33a8.18,8.18,0,0,1,5.39-3.61l.16,0,0-.16A5.89,5.89,0,0,0,21.16,18a6,6,0,0,0-4.38-5.75A5.29,5.29,0,0,0,15,12.06H15A5.94,5.94,0,0,0,9.23,18ZM8.14,33.57a6,6,0,0,0,5.3-3.23h0A5.92,5.92,0,0,0,14,28.78a6,6,0,0,0-4.54-7,5.59,5.59,0,0,0-1.64-.14H7.75a6,6,0,0,0-.1,11.89ZM15.2,43A6,6,0,0,0,17,42.67h0A6,6,0,0,0,21.16,37,6,6,0,0,0,21,35.81l0-.17-.17,0A8.18,8.18,0,0,1,15.41,32l-.21-.33L15,32a8.17,8.17,0,0,1-5.44,3.62l-.17,0,0,.17A6,6,0,0,0,15.12,43Zm13,4.1a6,6,0,0,0-.32-1.92l0-.14-.14,0a8.2,8.2,0,0,1-5.25-3.59l-.21-.33-.21.33A8.2,8.2,0,0,1,16.8,45l-.14,0,0,.14a6,6,0,1,0,11.61,1.92Zm2.9-4.38a6,6,0,0,0,4-6.86l0-.17-.17,0A8.18,8.18,0,0,1,29.52,32l-.21-.33L29.1,32a8.17,8.17,0,0,1-5.44,3.62l-.17,0,0,.17A6,6,0,0,0,23.34,37a6,6,0,0,0,4.16,5.68,6,6,0,0,0,1.73.28h.19A6,6,0,0,0,31.12,42.67Zm11.21,4.38A6,6,0,0,0,42,45.14L42,45l-.14,0a8.2,8.2,0,0,1-5.25-3.59l-.21-.33-.21.33A8.2,8.2,0,0,1,30.91,45l-.14,0,0,.14a6,6,0,1,0,11.61,1.92ZM49.39,37a6,6,0,0,0-.12-1.18l0-.17-.17,0A8.18,8.18,0,0,1,43.63,32l-.21-.33-.21.33a8.17,8.17,0,0,1-5.44,3.62l-.17,0,0,.17A6,6,0,0,0,43.42,43h.11A6,6,0,0,0,49.39,37Zm7.05-9.39a6,6,0,0,0-5.57-5.95H50.8a5.66,5.66,0,0,0-1.63.14,6,6,0,0,0,.16,11.67,5.92,5.92,0,0,0,1.15.11l.49,0A6,6,0,0,0,56.44,27.6ZM22.25,26a1.59,1.59,0,1,0,1.59,1.59A1.6,1.6,0,0,0,22.25,26Zm7.06,9.39A1.59,1.59,0,1,0,30.9,37,1.6,1.6,0,0,0,29.31,35.4ZM22.25,9.74a1.59,1.59,0,1,0-1.59-1.6A1.6,1.6,0,0,0,22.25,9.74Zm14.11,0a1.59,1.59,0,1,0-1.59-1.6A1.6,1.6,0,0,0,36.36,9.74ZM8.14,26A1.59,1.59,0,1,0,9.74,27.6,1.6,1.6,0,0,0,8.14,26ZM43.42,35.4A1.59,1.59,0,1,0,45,37,1.6,1.6,0,0,0,43.42,35.4ZM50.47,26a1.59,1.59,0,1,0,1.59,1.59A1.6,1.6,0,0,0,50.47,26Zm-21.17-6.4A1.59,1.59,0,1,0,27.71,18,1.6,1.6,0,0,0,29.31,19.61Zm7.06,25.85A1.59,1.59,0,1,0,38,47.06,1.6,1.6,0,0,0,36.36,45.46Zm0-19.46A1.59,1.59,0,1,0,38,27.6,1.6,1.6,0,0,0,36.36,26ZM15.2,35.4A1.59,1.59,0,1,0,16.79,37,1.6,1.6,0,0,0,15.2,35.4Z" style="fill:#1d1d1b"/></g></g></g></svg>